<mxfile host="Electron" modified="2024-11-07T08:51:54.689Z" agent="Mozilla/5.0 (Macintosh; Intel Mac OS X 10_15_7) AppleWebKit/537.36 (KHTML, like Gecko) draw.io/21.2.8 Chrome/112.0.5615.165 Electron/24.2.0 Safari/537.36" etag="bSa_dj2__L2vg5bX9LAe" version="21.2.8" type="device">
  <diagram name="Page-1" id="yin1Spq87rlJSguPEqDN">
    <mxGraphModel dx="1718" dy="1757" grid="1" gridSize="10" guides="1" tooltips="1" connect="1" arrows="1" fold="1" page="1" pageScale="1" pageWidth="827" pageHeight="1169" math="0" shadow="0">
      <root>
        <mxCell id="0" />
        <mxCell id="1" parent="0" />
        <mxCell id="-1R2bIeDD0BUmHgmYcjE-20" style="edgeStyle=orthogonalEdgeStyle;rounded=0;orthogonalLoop=1;jettySize=auto;html=1;exitX=1;exitY=0.5;exitDx=0;exitDy=0;" parent="1" source="-1R2bIeDD0BUmHgmYcjE-22" edge="1">
          <mxGeometry relative="1" as="geometry">
            <mxPoint x="440" y="155" as="targetPoint" />
          </mxGeometry>
        </mxCell>
        <mxCell id="-1R2bIeDD0BUmHgmYcjE-62" style="edgeStyle=orthogonalEdgeStyle;rounded=0;orthogonalLoop=1;jettySize=auto;html=1;exitX=0.5;exitY=1;exitDx=0;exitDy=0;entryX=0.5;entryY=0;entryDx=0;entryDy=0;" parent="1" source="-1R2bIeDD0BUmHgmYcjE-1" target="-1R2bIeDD0BUmHgmYcjE-50" edge="1">
          <mxGeometry relative="1" as="geometry" />
        </mxCell>
        <mxCell id="-1R2bIeDD0BUmHgmYcjE-135" style="edgeStyle=orthogonalEdgeStyle;rounded=0;orthogonalLoop=1;jettySize=auto;html=1;exitX=0;exitY=0.25;exitDx=0;exitDy=0;" parent="1" source="-1R2bIeDD0BUmHgmYcjE-1" edge="1">
          <mxGeometry relative="1" as="geometry">
            <mxPoint x="-379.99999999999955" y="600" as="targetPoint" />
          </mxGeometry>
        </mxCell>
        <mxCell id="rHi5DWFW4RnACAjFVDYU-1" style="edgeStyle=orthogonalEdgeStyle;rounded=0;orthogonalLoop=1;jettySize=auto;html=1;exitX=0.5;exitY=0;exitDx=0;exitDy=0;entryX=1;entryY=0.5;entryDx=0;entryDy=0;" edge="1" parent="1" source="-1R2bIeDD0BUmHgmYcjE-1" target="-1R2bIeDD0BUmHgmYcjE-158">
          <mxGeometry relative="1" as="geometry" />
        </mxCell>
        <mxCell id="-1R2bIeDD0BUmHgmYcjE-1" value="User" style="swimlane;whiteSpace=wrap;html=1;" parent="1" vertex="1">
          <mxGeometry x="40" y="70" width="200" height="170" as="geometry" />
        </mxCell>
        <mxCell id="-1R2bIeDD0BUmHgmYcjE-3" value="UserID" style="text;html=1;align=center;verticalAlign=middle;resizable=0;points=[];autosize=1;strokeColor=none;fillColor=none;fontStyle=4" parent="-1R2bIeDD0BUmHgmYcjE-1" vertex="1">
          <mxGeometry y="30" width="60" height="30" as="geometry" />
        </mxCell>
        <mxCell id="-1R2bIeDD0BUmHgmYcjE-139" style="edgeStyle=orthogonalEdgeStyle;rounded=0;orthogonalLoop=1;jettySize=auto;html=1;entryX=0.163;entryY=1.051;entryDx=0;entryDy=0;entryPerimeter=0;" parent="-1R2bIeDD0BUmHgmYcjE-1" target="-1R2bIeDD0BUmHgmYcjE-141" edge="1">
          <mxGeometry relative="1" as="geometry">
            <mxPoint x="-760" y="520" as="targetPoint" />
            <mxPoint y="65" as="sourcePoint" />
          </mxGeometry>
        </mxCell>
        <mxCell id="-1R2bIeDD0BUmHgmYcjE-8" value="Email" style="text;html=1;align=center;verticalAlign=middle;resizable=0;points=[];autosize=1;strokeColor=none;fillColor=none;" parent="-1R2bIeDD0BUmHgmYcjE-1" vertex="1">
          <mxGeometry y="60" width="50" height="30" as="geometry" />
        </mxCell>
        <mxCell id="-1R2bIeDD0BUmHgmYcjE-11" value="Password" style="text;html=1;align=center;verticalAlign=middle;resizable=0;points=[];autosize=1;strokeColor=none;fillColor=none;" parent="-1R2bIeDD0BUmHgmYcjE-1" vertex="1">
          <mxGeometry x="-5" y="80" width="80" height="30" as="geometry" />
        </mxCell>
        <mxCell id="-1R2bIeDD0BUmHgmYcjE-12" value="City" style="text;html=1;align=center;verticalAlign=middle;resizable=0;points=[];autosize=1;strokeColor=none;fillColor=none;" parent="-1R2bIeDD0BUmHgmYcjE-1" vertex="1">
          <mxGeometry y="100" width="40" height="30" as="geometry" />
        </mxCell>
        <mxCell id="-1R2bIeDD0BUmHgmYcjE-13" value="Age" style="text;html=1;align=center;verticalAlign=middle;resizable=0;points=[];autosize=1;strokeColor=none;fillColor=none;" parent="-1R2bIeDD0BUmHgmYcjE-1" vertex="1">
          <mxGeometry y="120" width="40" height="30" as="geometry" />
        </mxCell>
        <mxCell id="-1R2bIeDD0BUmHgmYcjE-14" value="Interests" style="text;html=1;align=center;verticalAlign=middle;resizable=0;points=[];autosize=1;strokeColor=none;fillColor=none;" parent="-1R2bIeDD0BUmHgmYcjE-1" vertex="1">
          <mxGeometry x="-5" y="140" width="70" height="30" as="geometry" />
        </mxCell>
        <mxCell id="-1R2bIeDD0BUmHgmYcjE-157" value="Psuedo" style="text;html=1;align=center;verticalAlign=middle;resizable=0;points=[];autosize=1;strokeColor=none;fillColor=none;" parent="-1R2bIeDD0BUmHgmYcjE-1" vertex="1">
          <mxGeometry y="45" width="60" height="30" as="geometry" />
        </mxCell>
        <mxCell id="-1R2bIeDD0BUmHgmYcjE-2" value="ProfileRating" style="swimlane;whiteSpace=wrap;html=1;" parent="1" vertex="1">
          <mxGeometry x="440" y="70" width="200" height="130" as="geometry" />
        </mxCell>
        <mxCell id="-1R2bIeDD0BUmHgmYcjE-16" value="ProfileID" style="text;html=1;align=center;verticalAlign=middle;resizable=0;points=[];autosize=1;strokeColor=none;fillColor=none;fontStyle=4" parent="-1R2bIeDD0BUmHgmYcjE-2" vertex="1">
          <mxGeometry x="5" y="30" width="70" height="30" as="geometry" />
        </mxCell>
        <mxCell id="-1R2bIeDD0BUmHgmYcjE-17" value="UserID" style="text;html=1;align=center;verticalAlign=middle;resizable=0;points=[];autosize=1;strokeColor=none;fillColor=none;" parent="-1R2bIeDD0BUmHgmYcjE-2" vertex="1">
          <mxGeometry x="5" y="50" width="60" height="30" as="geometry" />
        </mxCell>
        <mxCell id="-1R2bIeDD0BUmHgmYcjE-18" value="Rating" style="text;html=1;align=center;verticalAlign=middle;resizable=0;points=[];autosize=1;strokeColor=none;fillColor=none;" parent="-1R2bIeDD0BUmHgmYcjE-2" vertex="1">
          <mxGeometry x="5" y="70" width="60" height="30" as="geometry" />
        </mxCell>
        <mxCell id="-1R2bIeDD0BUmHgmYcjE-19" value="Comments" style="text;html=1;align=center;verticalAlign=middle;resizable=0;points=[];autosize=1;strokeColor=none;fillColor=none;" parent="-1R2bIeDD0BUmHgmYcjE-2" vertex="1">
          <mxGeometry x="5" y="90" width="80" height="30" as="geometry" />
        </mxCell>
        <mxCell id="-1R2bIeDD0BUmHgmYcjE-45" value="" style="points=[[0,0.5,0],[0.24,0,0],[0.5,0.28,0],[0.995,0.475,0],[0.5,0.72,0],[0.24,1,0]];verticalLabelPosition=bottom;sketch=0;html=1;verticalAlign=top;aspect=fixed;align=center;pointerEvents=1;shape=mxgraph.cisco19.key;fillColor=#000000;strokeColor=none;" parent="-1R2bIeDD0BUmHgmYcjE-2" vertex="1">
          <mxGeometry x="65" y="57.5" width="27.78" height="12.5" as="geometry" />
        </mxCell>
        <mxCell id="-1R2bIeDD0BUmHgmYcjE-23" value="" style="edgeStyle=orthogonalEdgeStyle;rounded=0;orthogonalLoop=1;jettySize=auto;html=1;exitX=1;exitY=0.5;exitDx=0;exitDy=0;" parent="1" source="-1R2bIeDD0BUmHgmYcjE-1" edge="1">
          <mxGeometry relative="1" as="geometry">
            <mxPoint x="440" y="155" as="targetPoint" />
            <mxPoint x="240" y="155" as="sourcePoint" />
          </mxGeometry>
        </mxCell>
        <mxCell id="-1R2bIeDD0BUmHgmYcjE-22" value="Rate/&lt;br&gt;Comment" style="ellipse;whiteSpace=wrap;html=1;" parent="1" vertex="1">
          <mxGeometry x="300" y="125" width="90" height="60" as="geometry" />
        </mxCell>
        <mxCell id="-1R2bIeDD0BUmHgmYcjE-24" value="0.N" style="text;html=1;strokeColor=none;fillColor=none;align=center;verticalAlign=middle;whiteSpace=wrap;rounded=0;" parent="1" vertex="1">
          <mxGeometry x="230" y="155" width="60" height="30" as="geometry" />
        </mxCell>
        <mxCell id="-1R2bIeDD0BUmHgmYcjE-25" value="1.1" style="text;html=1;strokeColor=none;fillColor=none;align=center;verticalAlign=middle;whiteSpace=wrap;rounded=0;" parent="1" vertex="1">
          <mxGeometry x="390" y="155" width="60" height="30" as="geometry" />
        </mxCell>
        <mxCell id="-1R2bIeDD0BUmHgmYcjE-147" style="edgeStyle=orthogonalEdgeStyle;rounded=0;orthogonalLoop=1;jettySize=auto;html=1;exitX=0.5;exitY=1;exitDx=0;exitDy=0;entryX=1;entryY=0.5;entryDx=0;entryDy=0;" parent="1" source="-1R2bIeDD0BUmHgmYcjE-26" target="-1R2bIeDD0BUmHgmYcjE-113" edge="1">
          <mxGeometry relative="1" as="geometry" />
        </mxCell>
        <mxCell id="-1R2bIeDD0BUmHgmYcjE-26" value="Event" style="swimlane;whiteSpace=wrap;html=1;" parent="1" vertex="1">
          <mxGeometry x="40" y="320" width="200" height="250" as="geometry" />
        </mxCell>
        <mxCell id="-1R2bIeDD0BUmHgmYcjE-27" value="EventID" style="text;html=1;align=center;verticalAlign=middle;resizable=0;points=[];autosize=1;strokeColor=none;fillColor=none;fontStyle=4" parent="-1R2bIeDD0BUmHgmYcjE-26" vertex="1">
          <mxGeometry x="-1" y="30" width="70" height="30" as="geometry" />
        </mxCell>
        <mxCell id="-1R2bIeDD0BUmHgmYcjE-28" value="EventName" style="text;html=1;align=center;verticalAlign=middle;resizable=0;points=[];autosize=1;strokeColor=none;fillColor=none;" parent="-1R2bIeDD0BUmHgmYcjE-26" vertex="1">
          <mxGeometry x="-1" y="54" width="90" height="30" as="geometry" />
        </mxCell>
        <mxCell id="-1R2bIeDD0BUmHgmYcjE-112" style="edgeStyle=orthogonalEdgeStyle;rounded=0;orthogonalLoop=1;jettySize=auto;html=1;" parent="-1R2bIeDD0BUmHgmYcjE-26" source="-1R2bIeDD0BUmHgmYcjE-30" edge="1">
          <mxGeometry relative="1" as="geometry">
            <mxPoint x="-160" y="105" as="targetPoint" />
          </mxGeometry>
        </mxCell>
        <mxCell id="-1R2bIeDD0BUmHgmYcjE-30" value="EventDateTime" style="text;html=1;align=center;verticalAlign=middle;resizable=0;points=[];autosize=1;strokeColor=none;fillColor=none;" parent="-1R2bIeDD0BUmHgmYcjE-26" vertex="1">
          <mxGeometry x="-1" y="86" width="110" height="30" as="geometry" />
        </mxCell>
        <mxCell id="-1R2bIeDD0BUmHgmYcjE-31" value="IsPaid" style="text;html=1;align=center;verticalAlign=middle;resizable=0;points=[];autosize=1;strokeColor=none;fillColor=none;" parent="-1R2bIeDD0BUmHgmYcjE-26" vertex="1">
          <mxGeometry y="106" width="60" height="30" as="geometry" />
        </mxCell>
        <mxCell id="-1R2bIeDD0BUmHgmYcjE-32" value="Price" style="text;html=1;align=center;verticalAlign=middle;resizable=0;points=[];autosize=1;strokeColor=none;fillColor=none;" parent="-1R2bIeDD0BUmHgmYcjE-26" vertex="1">
          <mxGeometry x="1" y="126" width="50" height="30" as="geometry" />
        </mxCell>
        <mxCell id="-1R2bIeDD0BUmHgmYcjE-35" value="AvailableSeats" style="text;html=1;align=center;verticalAlign=middle;resizable=0;points=[];autosize=1;strokeColor=none;fillColor=none;" parent="-1R2bIeDD0BUmHgmYcjE-26" vertex="1">
          <mxGeometry y="146.75" width="100" height="30" as="geometry" />
        </mxCell>
        <mxCell id="-1R2bIeDD0BUmHgmYcjE-44" value="EventTypeID" style="text;html=1;align=center;verticalAlign=middle;resizable=0;points=[];autosize=1;strokeColor=none;fillColor=none;" parent="-1R2bIeDD0BUmHgmYcjE-26" vertex="1">
          <mxGeometry x="1" y="170" width="90" height="30" as="geometry" />
        </mxCell>
        <mxCell id="-1R2bIeDD0BUmHgmYcjE-46" value="" style="points=[[0,0.5,0],[0.24,0,0],[0.5,0.28,0],[0.995,0.475,0],[0.5,0.72,0],[0.24,1,0]];verticalLabelPosition=bottom;sketch=0;html=1;verticalAlign=top;aspect=fixed;align=center;pointerEvents=1;shape=mxgraph.cisco19.key;fillColor=#000000;strokeColor=none;" parent="-1R2bIeDD0BUmHgmYcjE-26" vertex="1">
          <mxGeometry x="86.11000000000001" y="177.75" width="27.78" height="12.5" as="geometry" />
        </mxCell>
        <mxCell id="-1R2bIeDD0BUmHgmYcjE-47" value="OrganizerID" style="text;html=1;align=center;verticalAlign=middle;resizable=0;points=[];autosize=1;strokeColor=none;fillColor=none;" parent="-1R2bIeDD0BUmHgmYcjE-26" vertex="1">
          <mxGeometry x="-3.8899999999999997" y="195" width="90" height="30" as="geometry" />
        </mxCell>
        <mxCell id="-1R2bIeDD0BUmHgmYcjE-49" value="" style="points=[[0,0.5,0],[0.24,0,0],[0.5,0.28,0],[0.995,0.475,0],[0.5,0.72,0],[0.24,1,0]];verticalLabelPosition=bottom;sketch=0;html=1;verticalAlign=top;aspect=fixed;align=center;pointerEvents=1;shape=mxgraph.cisco19.key;fillColor=#000000;strokeColor=none;" parent="-1R2bIeDD0BUmHgmYcjE-26" vertex="1">
          <mxGeometry x="86.11000000000001" y="203.75" width="27.78" height="12.5" as="geometry" />
        </mxCell>
        <mxCell id="-1R2bIeDD0BUmHgmYcjE-50" value="Participation" style="swimlane;whiteSpace=wrap;html=1;" parent="1" vertex="1">
          <mxGeometry x="390" y="320" width="200" height="150" as="geometry" />
        </mxCell>
        <mxCell id="-1R2bIeDD0BUmHgmYcjE-51" value="ParticipationID" style="text;html=1;align=center;verticalAlign=middle;resizable=0;points=[];autosize=1;strokeColor=none;fillColor=none;fontStyle=4" parent="-1R2bIeDD0BUmHgmYcjE-50" vertex="1">
          <mxGeometry x="1" y="30" width="100" height="30" as="geometry" />
        </mxCell>
        <mxCell id="-1R2bIeDD0BUmHgmYcjE-52" value="UserID" style="text;html=1;align=center;verticalAlign=middle;resizable=0;points=[];autosize=1;strokeColor=none;fillColor=none;" parent="-1R2bIeDD0BUmHgmYcjE-50" vertex="1">
          <mxGeometry x="1" y="50" width="60" height="30" as="geometry" />
        </mxCell>
        <mxCell id="-1R2bIeDD0BUmHgmYcjE-70" style="edgeStyle=orthogonalEdgeStyle;rounded=0;orthogonalLoop=1;jettySize=auto;html=1;" parent="-1R2bIeDD0BUmHgmYcjE-50" source="-1R2bIeDD0BUmHgmYcjE-53" edge="1">
          <mxGeometry relative="1" as="geometry">
            <mxPoint x="-150" y="85" as="targetPoint" />
          </mxGeometry>
        </mxCell>
        <mxCell id="-1R2bIeDD0BUmHgmYcjE-53" value="EventId" style="text;html=1;align=center;verticalAlign=middle;resizable=0;points=[];autosize=1;strokeColor=none;fillColor=none;" parent="-1R2bIeDD0BUmHgmYcjE-50" vertex="1">
          <mxGeometry x="3" y="70" width="60" height="30" as="geometry" />
        </mxCell>
        <mxCell id="-1R2bIeDD0BUmHgmYcjE-54" value="Status" style="text;html=1;align=center;verticalAlign=middle;resizable=0;points=[];autosize=1;strokeColor=none;fillColor=none;" parent="-1R2bIeDD0BUmHgmYcjE-50" vertex="1">
          <mxGeometry y="91.25" width="60" height="30" as="geometry" />
        </mxCell>
        <mxCell id="-1R2bIeDD0BUmHgmYcjE-55" value="PaymentStatus" style="text;html=1;align=center;verticalAlign=middle;resizable=0;points=[];autosize=1;strokeColor=none;fillColor=none;" parent="-1R2bIeDD0BUmHgmYcjE-50" vertex="1">
          <mxGeometry x="3" y="110" width="100" height="30" as="geometry" />
        </mxCell>
        <mxCell id="-1R2bIeDD0BUmHgmYcjE-59" value="" style="points=[[0,0.5,0],[0.24,0,0],[0.5,0.28,0],[0.995,0.475,0],[0.5,0.72,0],[0.24,1,0]];verticalLabelPosition=bottom;sketch=0;html=1;verticalAlign=top;aspect=fixed;align=center;pointerEvents=1;shape=mxgraph.cisco19.key;fillColor=#000000;strokeColor=none;" parent="-1R2bIeDD0BUmHgmYcjE-50" vertex="1">
          <mxGeometry x="60.000000000000014" y="57.5" width="27.78" height="12.5" as="geometry" />
        </mxCell>
        <mxCell id="-1R2bIeDD0BUmHgmYcjE-61" value="" style="points=[[0,0.5,0],[0.24,0,0],[0.5,0.28,0],[0.995,0.475,0],[0.5,0.72,0],[0.24,1,0]];verticalLabelPosition=bottom;sketch=0;html=1;verticalAlign=top;aspect=fixed;align=center;pointerEvents=1;shape=mxgraph.cisco19.key;fillColor=#000000;strokeColor=none;" parent="-1R2bIeDD0BUmHgmYcjE-50" vertex="1">
          <mxGeometry x="60.000000000000014" y="78.75" width="27.78" height="12.5" as="geometry" />
        </mxCell>
        <mxCell id="-1R2bIeDD0BUmHgmYcjE-64" value="0.N" style="text;html=1;strokeColor=none;fillColor=none;align=center;verticalAlign=middle;whiteSpace=wrap;rounded=0;" parent="1" vertex="1">
          <mxGeometry x="130" y="240" width="60" height="30" as="geometry" />
        </mxCell>
        <mxCell id="-1R2bIeDD0BUmHgmYcjE-65" value="1.1" style="text;html=1;strokeColor=none;fillColor=none;align=center;verticalAlign=middle;whiteSpace=wrap;rounded=0;" parent="1" vertex="1">
          <mxGeometry x="440" y="250" width="60" height="30" as="geometry" />
        </mxCell>
        <mxCell id="-1R2bIeDD0BUmHgmYcjE-66" value="0.N" style="text;html=1;strokeColor=none;fillColor=none;align=center;verticalAlign=middle;whiteSpace=wrap;rounded=0;" parent="1" vertex="1">
          <mxGeometry x="230" y="410" width="60" height="30" as="geometry" />
        </mxCell>
        <mxCell id="-1R2bIeDD0BUmHgmYcjE-67" value="1.1" style="text;html=1;strokeColor=none;fillColor=none;align=center;verticalAlign=middle;whiteSpace=wrap;rounded=0;" parent="1" vertex="1">
          <mxGeometry x="350" y="410" width="60" height="30" as="geometry" />
        </mxCell>
        <mxCell id="-1R2bIeDD0BUmHgmYcjE-68" value="Register" style="ellipse;whiteSpace=wrap;html=1;" parent="1" vertex="1">
          <mxGeometry x="260" y="250" width="90" height="60" as="geometry" />
        </mxCell>
        <mxCell id="-1R2bIeDD0BUmHgmYcjE-69" value="Belong to" style="ellipse;whiteSpace=wrap;html=1;" parent="1" vertex="1">
          <mxGeometry x="280" y="380" width="90" height="60" as="geometry" />
        </mxCell>
        <mxCell id="-1R2bIeDD0BUmHgmYcjE-71" value="EventType" style="swimlane;whiteSpace=wrap;html=1;" parent="1" vertex="1">
          <mxGeometry x="420" y="560" width="200" height="160" as="geometry" />
        </mxCell>
        <mxCell id="-1R2bIeDD0BUmHgmYcjE-72" value="EventTypeID" style="text;html=1;align=center;verticalAlign=middle;resizable=0;points=[];autosize=1;strokeColor=none;fillColor=none;fontStyle=4" parent="-1R2bIeDD0BUmHgmYcjE-71" vertex="1">
          <mxGeometry x="6" y="30" width="90" height="30" as="geometry" />
        </mxCell>
        <mxCell id="-1R2bIeDD0BUmHgmYcjE-73" value="TypeName" style="text;html=1;align=center;verticalAlign=middle;resizable=0;points=[];autosize=1;strokeColor=none;fillColor=none;" parent="-1R2bIeDD0BUmHgmYcjE-71" vertex="1">
          <mxGeometry x="6" y="55" width="80" height="30" as="geometry" />
        </mxCell>
        <mxCell id="-1R2bIeDD0BUmHgmYcjE-75" value="Description" style="text;html=1;align=center;verticalAlign=middle;resizable=0;points=[];autosize=1;strokeColor=none;fillColor=none;" parent="-1R2bIeDD0BUmHgmYcjE-71" vertex="1">
          <mxGeometry x="6" y="75" width="80" height="30" as="geometry" />
        </mxCell>
        <mxCell id="-1R2bIeDD0BUmHgmYcjE-155" value="IsChecked" style="text;html=1;align=center;verticalAlign=middle;resizable=0;points=[];autosize=1;strokeColor=none;fillColor=none;" parent="-1R2bIeDD0BUmHgmYcjE-71" vertex="1">
          <mxGeometry x="6" y="100" width="80" height="30" as="geometry" />
        </mxCell>
        <mxCell id="-1R2bIeDD0BUmHgmYcjE-156" value="ThingsToBring" style="text;html=1;align=center;verticalAlign=middle;resizable=0;points=[];autosize=1;strokeColor=none;fillColor=none;" parent="-1R2bIeDD0BUmHgmYcjE-71" vertex="1">
          <mxGeometry x="6" y="120" width="100" height="30" as="geometry" />
        </mxCell>
        <mxCell id="-1R2bIeDD0BUmHgmYcjE-81" value="1.1" style="text;html=1;strokeColor=none;fillColor=none;align=center;verticalAlign=middle;whiteSpace=wrap;rounded=0;" parent="1" vertex="1">
          <mxGeometry x="220" y="480" width="60" height="30" as="geometry" />
        </mxCell>
        <mxCell id="-1R2bIeDD0BUmHgmYcjE-82" value="1.N" style="text;html=1;strokeColor=none;fillColor=none;align=center;verticalAlign=middle;whiteSpace=wrap;rounded=0;" parent="1" vertex="1">
          <mxGeometry x="380" y="585" width="60" height="30" as="geometry" />
        </mxCell>
        <mxCell id="-1R2bIeDD0BUmHgmYcjE-85" value="" style="edgeStyle=orthogonalEdgeStyle;rounded=0;orthogonalLoop=1;jettySize=auto;html=1;exitX=1;exitY=0.75;exitDx=0;exitDy=0;entryX=0;entryY=0.5;entryDx=0;entryDy=0;" parent="1" source="-1R2bIeDD0BUmHgmYcjE-26" target="-1R2bIeDD0BUmHgmYcjE-71" edge="1">
          <mxGeometry relative="1" as="geometry">
            <mxPoint x="240" y="508" as="sourcePoint" />
            <mxPoint x="420" y="620" as="targetPoint" />
            <Array as="points">
              <mxPoint x="320" y="508" />
              <mxPoint x="320" y="620" />
            </Array>
          </mxGeometry>
        </mxCell>
        <mxCell id="-1R2bIeDD0BUmHgmYcjE-83" value="Has type" style="ellipse;whiteSpace=wrap;html=1;" parent="1" vertex="1">
          <mxGeometry x="280" y="520" width="90" height="60" as="geometry" />
        </mxCell>
        <mxCell id="-1R2bIeDD0BUmHgmYcjE-86" value="Message" style="swimlane;whiteSpace=wrap;html=1;" parent="1" vertex="1">
          <mxGeometry x="-320" y="280" width="200" height="170" as="geometry" />
        </mxCell>
        <mxCell id="-1R2bIeDD0BUmHgmYcjE-87" value="MessageID" style="text;html=1;align=center;verticalAlign=middle;resizable=0;points=[];autosize=1;strokeColor=none;fillColor=none;fontStyle=4" parent="-1R2bIeDD0BUmHgmYcjE-86" vertex="1">
          <mxGeometry x="1" y="30" width="80" height="30" as="geometry" />
        </mxCell>
        <mxCell id="-1R2bIeDD0BUmHgmYcjE-88" value="FromUserID" style="text;html=1;align=center;verticalAlign=middle;resizable=0;points=[];autosize=1;strokeColor=none;fillColor=none;" parent="-1R2bIeDD0BUmHgmYcjE-86" vertex="1">
          <mxGeometry x="-3" y="50" width="90" height="30" as="geometry" />
        </mxCell>
        <mxCell id="-1R2bIeDD0BUmHgmYcjE-89" value="ToUserID" style="text;html=1;align=center;verticalAlign=middle;resizable=0;points=[];autosize=1;strokeColor=none;fillColor=none;" parent="-1R2bIeDD0BUmHgmYcjE-86" vertex="1">
          <mxGeometry y="70" width="70" height="30" as="geometry" />
        </mxCell>
        <mxCell id="-1R2bIeDD0BUmHgmYcjE-90" value="EventID" style="text;html=1;align=center;verticalAlign=middle;resizable=0;points=[];autosize=1;strokeColor=none;fillColor=none;" parent="-1R2bIeDD0BUmHgmYcjE-86" vertex="1">
          <mxGeometry x="-4" y="90" width="70" height="30" as="geometry" />
        </mxCell>
        <mxCell id="-1R2bIeDD0BUmHgmYcjE-91" value="MessageContent" style="text;html=1;align=center;verticalAlign=middle;resizable=0;points=[];autosize=1;strokeColor=none;fillColor=none;" parent="-1R2bIeDD0BUmHgmYcjE-86" vertex="1">
          <mxGeometry x="1" y="111.25" width="110" height="30" as="geometry" />
        </mxCell>
        <mxCell id="-1R2bIeDD0BUmHgmYcjE-92" value="TimeStamp" style="text;html=1;align=center;verticalAlign=middle;resizable=0;points=[];autosize=1;strokeColor=none;fillColor=none;" parent="-1R2bIeDD0BUmHgmYcjE-86" vertex="1">
          <mxGeometry x="1" y="130" width="80" height="30" as="geometry" />
        </mxCell>
        <mxCell id="-1R2bIeDD0BUmHgmYcjE-93" value="" style="points=[[0,0.5,0],[0.24,0,0],[0.5,0.28,0],[0.995,0.475,0],[0.5,0.72,0],[0.24,1,0]];verticalLabelPosition=bottom;sketch=0;html=1;verticalAlign=top;aspect=fixed;align=center;pointerEvents=1;shape=mxgraph.cisco19.key;fillColor=#000000;strokeColor=none;" parent="-1R2bIeDD0BUmHgmYcjE-86" vertex="1">
          <mxGeometry x="81" y="58.75" width="27.78" height="12.5" as="geometry" />
        </mxCell>
        <mxCell id="-1R2bIeDD0BUmHgmYcjE-94" value="" style="points=[[0,0.5,0],[0.24,0,0],[0.5,0.28,0],[0.995,0.475,0],[0.5,0.72,0],[0.24,1,0]];verticalLabelPosition=bottom;sketch=0;html=1;verticalAlign=top;aspect=fixed;align=center;pointerEvents=1;shape=mxgraph.cisco19.key;fillColor=#000000;strokeColor=none;" parent="-1R2bIeDD0BUmHgmYcjE-86" vertex="1">
          <mxGeometry x="81" y="77.5" width="27.78" height="12.5" as="geometry" />
        </mxCell>
        <mxCell id="-1R2bIeDD0BUmHgmYcjE-95" value="" style="points=[[0,0.5,0],[0.24,0,0],[0.5,0.28,0],[0.995,0.475,0],[0.5,0.72,0],[0.24,1,0]];verticalLabelPosition=bottom;sketch=0;html=1;verticalAlign=top;aspect=fixed;align=center;pointerEvents=1;shape=mxgraph.cisco19.key;fillColor=#000000;strokeColor=none;" parent="-1R2bIeDD0BUmHgmYcjE-86" vertex="1">
          <mxGeometry x="70" y="98.75" width="27.78" height="12.5" as="geometry" />
        </mxCell>
        <mxCell id="-1R2bIeDD0BUmHgmYcjE-96" style="edgeStyle=orthogonalEdgeStyle;rounded=0;orthogonalLoop=1;jettySize=auto;html=1;entryX=0.533;entryY=-0.02;entryDx=0;entryDy=0;entryPerimeter=0;" parent="1" target="-1R2bIeDD0BUmHgmYcjE-86" edge="1">
          <mxGeometry relative="1" as="geometry">
            <mxPoint x="-210" y="200" as="targetPoint" />
            <mxPoint x="40" y="175" as="sourcePoint" />
          </mxGeometry>
        </mxCell>
        <mxCell id="-1R2bIeDD0BUmHgmYcjE-97" value="1.N" style="text;html=1;strokeColor=none;fillColor=none;align=center;verticalAlign=middle;whiteSpace=wrap;rounded=0;" parent="1" vertex="1">
          <mxGeometry x="-10" y="180" width="60" height="30" as="geometry" />
        </mxCell>
        <mxCell id="-1R2bIeDD0BUmHgmYcjE-98" value="1.1" style="text;html=1;strokeColor=none;fillColor=none;align=center;verticalAlign=middle;whiteSpace=wrap;rounded=0;" parent="1" vertex="1">
          <mxGeometry x="-220" y="250" width="60" height="30" as="geometry" />
        </mxCell>
        <mxCell id="-1R2bIeDD0BUmHgmYcjE-99" value="Send/&lt;br&gt;Receive" style="ellipse;whiteSpace=wrap;html=1;" parent="1" vertex="1">
          <mxGeometry x="-130" y="140" width="90" height="60" as="geometry" />
        </mxCell>
        <mxCell id="-1R2bIeDD0BUmHgmYcjE-100" value="1.N" style="text;html=1;strokeColor=none;fillColor=none;align=center;verticalAlign=middle;whiteSpace=wrap;rounded=0;" parent="1" vertex="1">
          <mxGeometry x="-10" y="430" width="60" height="30" as="geometry" />
        </mxCell>
        <mxCell id="-1R2bIeDD0BUmHgmYcjE-102" value="1.1" style="text;html=1;strokeColor=none;fillColor=none;align=center;verticalAlign=middle;whiteSpace=wrap;rounded=0;" parent="1" vertex="1">
          <mxGeometry x="-140" y="430" width="60" height="30" as="geometry" />
        </mxCell>
        <mxCell id="-1R2bIeDD0BUmHgmYcjE-103" value="Relate to" style="ellipse;whiteSpace=wrap;html=1;" parent="1" vertex="1">
          <mxGeometry x="-80" y="400" width="80" height="50" as="geometry" />
        </mxCell>
        <mxCell id="-1R2bIeDD0BUmHgmYcjE-113" value="Proposition" style="swimlane;whiteSpace=wrap;html=1;" parent="1" vertex="1">
          <mxGeometry x="-460" y="600" width="200" height="140" as="geometry" />
        </mxCell>
        <mxCell id="-1R2bIeDD0BUmHgmYcjE-114" value="PropositionID" style="text;html=1;align=center;verticalAlign=middle;resizable=0;points=[];autosize=1;strokeColor=none;fillColor=none;fontStyle=4" parent="-1R2bIeDD0BUmHgmYcjE-113" vertex="1">
          <mxGeometry x="-3" y="28.75" width="100" height="30" as="geometry" />
        </mxCell>
        <mxCell id="-1R2bIeDD0BUmHgmYcjE-115" value="EventID" style="text;html=1;align=center;verticalAlign=middle;resizable=0;points=[];autosize=1;strokeColor=none;fillColor=none;" parent="-1R2bIeDD0BUmHgmYcjE-113" vertex="1">
          <mxGeometry x="-3" y="50" width="70" height="30" as="geometry" />
        </mxCell>
        <mxCell id="-1R2bIeDD0BUmHgmYcjE-150" style="edgeStyle=orthogonalEdgeStyle;rounded=0;orthogonalLoop=1;jettySize=auto;html=1;" parent="-1R2bIeDD0BUmHgmYcjE-113" source="-1R2bIeDD0BUmHgmYcjE-116" edge="1">
          <mxGeometry relative="1" as="geometry">
            <mxPoint x="-150" y="85" as="targetPoint" />
          </mxGeometry>
        </mxCell>
        <mxCell id="-1R2bIeDD0BUmHgmYcjE-116" value="UserID" style="text;html=1;align=center;verticalAlign=middle;resizable=0;points=[];autosize=1;strokeColor=none;fillColor=none;" parent="-1R2bIeDD0BUmHgmYcjE-113" vertex="1">
          <mxGeometry y="70" width="60" height="30" as="geometry" />
        </mxCell>
        <mxCell id="-1R2bIeDD0BUmHgmYcjE-117" value="GameName" style="text;html=1;align=center;verticalAlign=middle;resizable=0;points=[];autosize=1;strokeColor=none;fillColor=none;" parent="-1R2bIeDD0BUmHgmYcjE-113" vertex="1">
          <mxGeometry x="-3" y="91.25" width="90" height="30" as="geometry" />
        </mxCell>
        <mxCell id="-1R2bIeDD0BUmHgmYcjE-118" value="Plateforme" style="text;html=1;align=center;verticalAlign=middle;resizable=0;points=[];autosize=1;strokeColor=none;fillColor=none;" parent="-1R2bIeDD0BUmHgmYcjE-113" vertex="1">
          <mxGeometry y="111.25" width="80" height="30" as="geometry" />
        </mxCell>
        <mxCell id="-1R2bIeDD0BUmHgmYcjE-120" value="" style="points=[[0,0.5,0],[0.24,0,0],[0.5,0.28,0],[0.995,0.475,0],[0.5,0.72,0],[0.24,1,0]];verticalLabelPosition=bottom;sketch=0;html=1;verticalAlign=top;aspect=fixed;align=center;pointerEvents=1;shape=mxgraph.cisco19.key;fillColor=#000000;strokeColor=none;" parent="-1R2bIeDD0BUmHgmYcjE-113" vertex="1">
          <mxGeometry x="67" y="58.75" width="27.78" height="12.5" as="geometry" />
        </mxCell>
        <mxCell id="-1R2bIeDD0BUmHgmYcjE-121" value="" style="points=[[0,0.5,0],[0.24,0,0],[0.5,0.28,0],[0.995,0.475,0],[0.5,0.72,0],[0.24,1,0]];verticalLabelPosition=bottom;sketch=0;html=1;verticalAlign=top;aspect=fixed;align=center;pointerEvents=1;shape=mxgraph.cisco19.key;fillColor=#000000;strokeColor=none;" parent="-1R2bIeDD0BUmHgmYcjE-113" vertex="1">
          <mxGeometry x="67" y="78.75" width="27.78" height="12.5" as="geometry" />
        </mxCell>
        <mxCell id="-1R2bIeDD0BUmHgmYcjE-123" value="Vote" style="swimlane;whiteSpace=wrap;html=1;" parent="1" vertex="1">
          <mxGeometry x="-810" y="600" width="200" height="100" as="geometry" />
        </mxCell>
        <mxCell id="-1R2bIeDD0BUmHgmYcjE-124" value="VoteID" style="text;html=1;align=center;verticalAlign=middle;resizable=0;points=[];autosize=1;strokeColor=none;fillColor=none;fontStyle=4" parent="-1R2bIeDD0BUmHgmYcjE-123" vertex="1">
          <mxGeometry y="28.75" width="60" height="30" as="geometry" />
        </mxCell>
        <mxCell id="-1R2bIeDD0BUmHgmYcjE-125" value="PropositionID" style="text;html=1;align=center;verticalAlign=middle;resizable=0;points=[];autosize=1;strokeColor=none;fillColor=none;" parent="-1R2bIeDD0BUmHgmYcjE-123" vertex="1">
          <mxGeometry x="-3" y="48.75" width="100" height="30" as="geometry" />
        </mxCell>
        <mxCell id="-1R2bIeDD0BUmHgmYcjE-126" value="UserID" style="text;html=1;align=center;verticalAlign=middle;resizable=0;points=[];autosize=1;strokeColor=none;fillColor=none;" parent="-1R2bIeDD0BUmHgmYcjE-123" vertex="1">
          <mxGeometry y="70" width="60" height="30" as="geometry" />
        </mxCell>
        <mxCell id="-1R2bIeDD0BUmHgmYcjE-129" value="" style="points=[[0,0.5,0],[0.24,0,0],[0.5,0.28,0],[0.995,0.475,0],[0.5,0.72,0],[0.24,1,0]];verticalLabelPosition=bottom;sketch=0;html=1;verticalAlign=top;aspect=fixed;align=center;pointerEvents=1;shape=mxgraph.cisco19.key;fillColor=#000000;strokeColor=none;" parent="-1R2bIeDD0BUmHgmYcjE-123" vertex="1">
          <mxGeometry x="87" y="57.5" width="27.78" height="12.5" as="geometry" />
        </mxCell>
        <mxCell id="-1R2bIeDD0BUmHgmYcjE-130" value="" style="points=[[0,0.5,0],[0.24,0,0],[0.5,0.28,0],[0.995,0.475,0],[0.5,0.72,0],[0.24,1,0]];verticalLabelPosition=bottom;sketch=0;html=1;verticalAlign=top;aspect=fixed;align=center;pointerEvents=1;shape=mxgraph.cisco19.key;fillColor=#000000;strokeColor=none;" parent="-1R2bIeDD0BUmHgmYcjE-123" vertex="1">
          <mxGeometry x="59.22" y="78.75" width="27.78" height="12.5" as="geometry" />
        </mxCell>
        <mxCell id="-1R2bIeDD0BUmHgmYcjE-131" value="0.N" style="text;html=1;strokeColor=none;fillColor=none;align=center;verticalAlign=middle;whiteSpace=wrap;rounded=0;" parent="1" vertex="1">
          <mxGeometry x="-10" y="80" width="60" height="30" as="geometry" />
        </mxCell>
        <mxCell id="-1R2bIeDD0BUmHgmYcjE-132" value="1.1" style="text;html=1;strokeColor=none;fillColor=none;align=center;verticalAlign=middle;whiteSpace=wrap;rounded=0;" parent="1" vertex="1">
          <mxGeometry x="-280" y="640" width="60" height="30" as="geometry" />
        </mxCell>
        <mxCell id="-1R2bIeDD0BUmHgmYcjE-133" value="0.N" style="text;html=1;strokeColor=none;fillColor=none;align=center;verticalAlign=middle;whiteSpace=wrap;rounded=0;" parent="1" vertex="1">
          <mxGeometry x="90" y="570" width="60" height="30" as="geometry" />
        </mxCell>
        <mxCell id="-1R2bIeDD0BUmHgmYcjE-136" value="1.1" style="text;html=1;strokeColor=none;fillColor=none;align=center;verticalAlign=middle;whiteSpace=wrap;rounded=0;" parent="1" vertex="1">
          <mxGeometry x="-390" y="570" width="60" height="30" as="geometry" />
        </mxCell>
        <mxCell id="-1R2bIeDD0BUmHgmYcjE-137" value="0.N" style="text;html=1;strokeColor=none;fillColor=none;align=center;verticalAlign=middle;whiteSpace=wrap;rounded=0;" parent="1" vertex="1">
          <mxGeometry x="-510" y="620" width="60" height="30" as="geometry" />
        </mxCell>
        <mxCell id="-1R2bIeDD0BUmHgmYcjE-138" value="1.1" style="text;html=1;strokeColor=none;fillColor=none;align=center;verticalAlign=middle;whiteSpace=wrap;rounded=0;" parent="1" vertex="1">
          <mxGeometry x="-630" y="620" width="60" height="30" as="geometry" />
        </mxCell>
        <mxCell id="-1R2bIeDD0BUmHgmYcjE-140" value="0.1" style="text;html=1;strokeColor=none;fillColor=none;align=center;verticalAlign=middle;whiteSpace=wrap;rounded=0;" parent="1" vertex="1">
          <mxGeometry x="-10" y="130" width="60" height="30" as="geometry" />
        </mxCell>
        <mxCell id="-1R2bIeDD0BUmHgmYcjE-141" value="1.1" style="text;html=1;strokeColor=none;fillColor=none;align=center;verticalAlign=middle;whiteSpace=wrap;rounded=0;" parent="1" vertex="1">
          <mxGeometry x="-730" y="570" width="60" height="30" as="geometry" />
        </mxCell>
        <mxCell id="-1R2bIeDD0BUmHgmYcjE-145" value="Propose" style="ellipse;whiteSpace=wrap;html=1;" parent="1" vertex="1">
          <mxGeometry x="-420" y="300" width="80" height="50" as="geometry" />
        </mxCell>
        <mxCell id="-1R2bIeDD0BUmHgmYcjE-146" value="Vote" style="ellipse;whiteSpace=wrap;html=1;" parent="1" vertex="1">
          <mxGeometry x="-760" y="280" width="80" height="50" as="geometry" />
        </mxCell>
        <mxCell id="-1R2bIeDD0BUmHgmYcjE-148" value="Has" style="ellipse;whiteSpace=wrap;html=1;" parent="1" vertex="1">
          <mxGeometry x="-110" y="650" width="80" height="50" as="geometry" />
        </mxCell>
        <mxCell id="-1R2bIeDD0BUmHgmYcjE-151" value="Collecte" style="ellipse;whiteSpace=wrap;html=1;" parent="1" vertex="1">
          <mxGeometry x="-570" y="660" width="80" height="50" as="geometry" />
        </mxCell>
        <mxCell id="-1R2bIeDD0BUmHgmYcjE-158" value="Location" style="swimlane;whiteSpace=wrap;html=1;" parent="1" vertex="1">
          <mxGeometry x="-320" y="-80" width="200" height="130" as="geometry" />
        </mxCell>
        <mxCell id="-1R2bIeDD0BUmHgmYcjE-159" value="LocationID" style="text;html=1;align=center;verticalAlign=middle;resizable=0;points=[];autosize=1;strokeColor=none;fillColor=none;fontStyle=4" parent="-1R2bIeDD0BUmHgmYcjE-158" vertex="1">
          <mxGeometry y="30" width="80" height="30" as="geometry" />
        </mxCell>
        <mxCell id="-1R2bIeDD0BUmHgmYcjE-160" value="UserID" style="text;html=1;align=center;verticalAlign=middle;resizable=0;points=[];autosize=1;strokeColor=none;fillColor=none;" parent="-1R2bIeDD0BUmHgmYcjE-158" vertex="1">
          <mxGeometry x="-2" y="50" width="60" height="30" as="geometry" />
        </mxCell>
        <mxCell id="-1R2bIeDD0BUmHgmYcjE-161" value="EventID" style="text;html=1;align=center;verticalAlign=middle;resizable=0;points=[];autosize=1;strokeColor=none;fillColor=none;" parent="-1R2bIeDD0BUmHgmYcjE-158" vertex="1">
          <mxGeometry x="-3" y="70" width="70" height="30" as="geometry" />
        </mxCell>
        <mxCell id="-1R2bIeDD0BUmHgmYcjE-162" value="City" style="text;html=1;align=center;verticalAlign=middle;resizable=0;points=[];autosize=1;strokeColor=none;fillColor=none;" parent="-1R2bIeDD0BUmHgmYcjE-158" vertex="1">
          <mxGeometry x="1" y="88.5" width="40" height="30" as="geometry" />
        </mxCell>
        <mxCell id="-1R2bIeDD0BUmHgmYcjE-163" value="" style="points=[[0,0.5,0],[0.24,0,0],[0.5,0.28,0],[0.995,0.475,0],[0.5,0.72,0],[0.24,1,0]];verticalLabelPosition=bottom;sketch=0;html=1;verticalAlign=top;aspect=fixed;align=center;pointerEvents=1;shape=mxgraph.cisco19.key;fillColor=#000000;strokeColor=none;" parent="-1R2bIeDD0BUmHgmYcjE-158" vertex="1">
          <mxGeometry x="54" y="58.5" width="27.78" height="12.5" as="geometry" />
        </mxCell>
        <mxCell id="-1R2bIeDD0BUmHgmYcjE-164" value="" style="points=[[0,0.5,0],[0.24,0,0],[0.5,0.28,0],[0.995,0.475,0],[0.5,0.72,0],[0.24,1,0]];verticalLabelPosition=bottom;sketch=0;html=1;verticalAlign=top;aspect=fixed;align=center;pointerEvents=1;shape=mxgraph.cisco19.key;fillColor=#000000;strokeColor=none;" parent="-1R2bIeDD0BUmHgmYcjE-158" vertex="1">
          <mxGeometry x="60" y="80" width="27.78" height="12.5" as="geometry" />
        </mxCell>
        <mxCell id="rHi5DWFW4RnACAjFVDYU-2" value="IsLocatedIn" style="ellipse;whiteSpace=wrap;html=1;" vertex="1" parent="1">
          <mxGeometry x="-10" y="-45" width="90" height="60" as="geometry" />
        </mxCell>
        <mxCell id="rHi5DWFW4RnACAjFVDYU-3" value="1.N" style="text;html=1;strokeColor=none;fillColor=none;align=center;verticalAlign=middle;whiteSpace=wrap;rounded=0;" vertex="1" parent="1">
          <mxGeometry x="90" y="40" width="60" height="30" as="geometry" />
        </mxCell>
        <mxCell id="rHi5DWFW4RnACAjFVDYU-4" value="1.1" style="text;html=1;strokeColor=none;fillColor=none;align=center;verticalAlign=middle;whiteSpace=wrap;rounded=0;" vertex="1" parent="1">
          <mxGeometry x="-140" y="-15" width="60" height="30" as="geometry" />
        </mxCell>
        <mxCell id="rHi5DWFW4RnACAjFVDYU-6" style="edgeStyle=orthogonalEdgeStyle;rounded=0;orthogonalLoop=1;jettySize=auto;html=1;" edge="1" parent="1" source="-1R2bIeDD0BUmHgmYcjE-28">
          <mxGeometry relative="1" as="geometry">
            <mxPoint x="-200" y="-80" as="targetPoint" />
            <Array as="points">
              <mxPoint x="-30" y="389" />
              <mxPoint x="-30" y="-120" />
              <mxPoint x="-200" y="-120" />
              <mxPoint x="-200" y="-80" />
            </Array>
          </mxGeometry>
        </mxCell>
        <mxCell id="rHi5DWFW4RnACAjFVDYU-8" value="1.1" style="text;html=1;strokeColor=none;fillColor=none;align=center;verticalAlign=middle;whiteSpace=wrap;rounded=0;" vertex="1" parent="1">
          <mxGeometry x="-10" y="360" width="60" height="30" as="geometry" />
        </mxCell>
        <mxCell id="rHi5DWFW4RnACAjFVDYU-9" value="1.1" style="text;html=1;strokeColor=none;fillColor=none;align=center;verticalAlign=middle;whiteSpace=wrap;rounded=0;" vertex="1" parent="1">
          <mxGeometry x="-210" y="-120" width="60" height="30" as="geometry" />
        </mxCell>
        <mxCell id="rHi5DWFW4RnACAjFVDYU-10" value="TakePlaceAt" style="ellipse;whiteSpace=wrap;html=1;" vertex="1" parent="1">
          <mxGeometry x="-70" y="255" width="80" height="50" as="geometry" />
        </mxCell>
      </root>
    </mxGraphModel>
  </diagram>
</mxfile>
